<svg xmlns="http://www.w3.org/2000/svg" xmlns:xlink="http://www.w3.org/1999/xlink" aria-hidden="true" role="img" class="iconify iconify--ph" width="32" height="32" preserveAspectRatio="xMidYMid meet" viewBox="0 0 256 256"><path d="M213.7 66.3l-40-40A8.1 8.1 0 0 0 168 24H88a16 16 0 0 0-16 16v16H56a16 16 0 0 0-16 16v144a16 16 0 0 0 16 16h112a16 16 0 0 0 16-16v-16h16a16 16 0 0 0 16-16V72a8.1 8.1 0 0 0-2.3-5.7zM168 216H56V72h76.7l35.3 35.3V216zm32-32h-16v-80a8.1 8.1 0 0 0-2.3-5.7l-40-40A8.1 8.1 0 0 0 136 56H88V40h76.7L200 75.3zm-56-32a8 8 0 0 1-8 8H88a8 8 0 0 1 0-16h48a8 8 0 0 1 8 8zm0 32a8 8 0 0 1-8 8H88a8 8 0 0 1 0-16h48a8 8 0 0 1 8 8z" fill="#dfebe1"></path></svg>