<?xml version="1.0" standalone="no"?>
<!DOCTYPE svg PUBLIC "-//W3C//DTD SVG 20010904//EN"
 "http://www.w3.org/TR/2001/REC-SVG-20010904/DTD/svg10.dtd">
<svg version="1.0" xmlns="http://www.w3.org/2000/svg"
 width="473.000000pt" height="473.000000pt" viewBox="0 0 473.000000 473.000000"
 preserveAspectRatio="xMidYMid meet">
<metadata>
Created by potrace 1.14, written by Peter Selinger 2001-2017
</metadata>
<g transform="translate(0.000000,473.000000) scale(0.100000,-0.100000)"
fill="#000000" stroke="none">
<path d="M2219 4116 c-2 -2 -36 -7 -75 -10 -39 -4 -82 -9 -95 -12 -13 -2 -40
-7 -59 -10 -19 -3 -38 -8 -41 -10 -3 -2 -21 -6 -40 -9 -127 -22 -378 -132
-534 -233 -447 -290 -747 -787 -791 -1312 -49 -570 206 -1151 659 -1503 256
-199 536 -319 857 -366 149 -22 380 -16 523 15 39 8 80 17 91 19 153 33 384
131 538 230 341 220 596 553 721 940 63 196 82 316 81 525 0 155 -4 195 -34
340 -93 456 -366 853 -767 1117 -200 131 -488 238 -723 267 -60 8 -305 18
-311 12z m373 -135 c288 -50 546 -169 771 -355 37 -31 67 -60 67 -64 0 -15
-622 -627 -627 -615 -18 47 -141 211 -212 283 -209 210 -473 334 -757 354 -39
3 -75 6 -80 8 -5 1 -22 -1 -39 -4 l-30 -6 1 -246 c0 -214 -2 -244 -15 -233 -8
7 -55 53 -104 102 -49 50 -95 89 -101 87 -6 -2 -8 -1 -4 3 9 9 -23 45 -34 39
-5 -3 -7 0 -6 8 2 7 -3 12 -9 11 -7 -2 -12 3 -10 10 1 6 -4 11 -10 10 -7 -2
-12 3 -10 10 1 6 -4 11 -10 10 -7 -2 -12 3 -10 10 1 6 -4 11 -10 10 -7 -2 -12
3 -10 10 1 6 -4 11 -11 9 -8 -1 -11 1 -8 6 6 11 -30 43 -39 34 -4 -4 -5 0 -3
8 2 8 -3 14 -9 13 -7 -2 -12 3 -10 10 1 6 -4 11 -10 10 -7 -2 -12 3 -10 10 1
6 -4 11 -10 10 -7 -2 -12 3 -10 10 1 6 -4 11 -10 10 -7 -2 -13 -1 -13 2 0 9
58 59 145 125 354 268 807 377 1247 301z m-662 -516 c14 -3 38 -8 53 -10 46
-9 146 -45 223 -80 194 -89 381 -266 493 -465 l30 -56 -202 -202 -203 -202
-274 274 -275 274 2 238 c0 132 2 241 2 243 1 4 114 -6 151 -14z m-834 -1095
c-1 -588 -1 -1070 -2 -1070 -1 0 -29 36 -63 80 -122 157 -231 371 -281 554
-25 90 -28 102 -45 211 -13 81 -14 409 -1 470 4 17 11 53 17 80 6 28 13 61 15
75 12 60 77 236 118 320 66 132 212 350 234 350 4 0 8 -481 8 -1070z m2590
889 c309 -474 344 -1102 90 -1607 -48 -94 -145 -246 -194 -302 l-31 -35 -1
1064 0 1064 46 -59 c26 -32 66 -89 90 -125z m-2000 -889 l-1 -560 -245 -245
c-135 -135 -247 -245 -250 -245 -3 0 -5 475 -5 1055 l0 1055 251 -251 250
-250 0 -559z m1774 550 c0 -471 -1 -500 -17 -501 -114 -6 -496 -2 -501 6 -3 5
-7 30 -8 55 -2 43 -8 90 -20 155 -3 17 -17 67 -31 113 l-25 82 293 295 c162
162 297 295 301 295 4 0 7 -225 8 -500z m-1445 -320 l230 -230 -230 -230
c-126 -126 -231 -227 -234 -225 -6 7 -7 915 -1 915 3 0 109 -103 235 -230z
m778 78 c24 -90 39 -190 35 -228 l-3 -34 -188 0 c-103 -1 -187 1 -187 3 0 6
314 320 321 321 3 0 13 -28 22 -62z m33 -423 c-9 -94 -12 -112 -42 -208 -87
-278 -290 -519 -549 -654 -81 -42 -207 -88 -267 -98 -18 -3 -44 -7 -58 -10
-14 -2 -50 -7 -80 -10 l-55 -6 1 240 1 241 284 283 c156 156 290 286 297 288
8 3 117 4 244 4 l230 0 -6 -70z m634 -487 l0 -557 -78 -66 c-219 -189 -507
-327 -772 -370 -19 -3 -46 -8 -60 -10 -77 -16 -285 -21 -395 -10 -312 31 -658
179 -886 377 l-59 51 232 233 c128 129 235 234 239 234 3 0 5 -110 5 -245 -1
-156 3 -245 9 -246 23 -3 62 -1 90 4 17 3 62 8 100 12 77 7 228 45 302 76 428
179 714 570 748 1024 2 28 4 50 4 50 1 0 118 0 261 0 l260 0 0 -557z"/>
</g>
</svg>
